Patient4_TMGait_0pt4_01_left_04_GRF.mot
version=1
nRows=32
nColumns=19
inDegrees=no
endheader
time	F1x	F1y	F1z	M1x	M1y	M1z	F2x	F2y	F2z	M2x	M2y	M2z	EC1x	EC1y	EC1z	EC2x	EC2y	EC2z
4.13	-3.109	14.1011	5.1816	-5.4293	-5.7936	16.8059	-46.8279	691.0162	-63.2978	258.0219	82.5641	781.1875	-0.0592	0.0182	-0.0073	-0.0462	0.0165	0.9585
4.1425	-1.9972	10.0253	3.6597	-3.8534	-4.0624	11.8644	-38.5559	699.09	-63.4503	258.9965	80.4914	785.6967	-0.0592	0.0182	-0.0073	-0.0462	0.0165	0.9585
4.155	-1.1233	6.6115	2.3234	-2.5251	-2.5699	7.7345	-30.8003	707.6144	-63.509	260.2906	78.3257	790.0958	-0.0592	0.0182	-0.0073	-0.0462	0.0165	0.9585
4.1675	-0.5079	4.0528	1.2783	-1.521	-1.4228	4.6388	-23.9552	716.8414	-63.4828	262.1403	76.1818	794.8178	-0.0592	0.0182	-0.0073	-0.0462	0.0165	0.9585
4.18	-0.11824	2.3207	0.53283	-0.8343	-0.61932	2.5292	-18.1066	727.1174	-63.3861	264.7346	74.1212	800.3674	-0.0592	0.0182	-0.0073	-0.0462	0.0165	0.9585
4.1925	0.081561	1.2955	0.054856	-0.42065	-0.12035	1.281	-13.1535	738.4978	-63.225	268.1054	72.1515	806.8936	-0.0592	0.0182	-0.0073	-0.0462	0.0165	0.9585
4.205	0.14825	0.76022	-0.21166	-0.20458	0.14645	0.64886	-8.9054	750.6626	-63.0028	272.1046	70.2499	814.1459	-0.0592	0.0182	-0.0073	-0.0462	0.0165	0.9585
4.2175	0.10679	0.51834	-0.32136	-0.11055	0.23669	0.40773	-5.1305	762.8737	-62.6968	276.4079	68.35	821.4175	-0.0592	0.0182	-0.0073	-0.0462	0.0165	0.9585
4.23	-0.0015564	0.37773	-0.32093	-0.064065	0.20346	0.299	-1.6872	774.062	-62.28	280.5594	66.3997	827.6564	-0.0592	0.0182	-0.0073	-0.0462	0.0165	0.9585
4.2425	-0.16079	0.17568	-0.25027	0.0016677	0.083111	0.12379	1.5075	783.0841	-61.729	284.0701	64.3647	831.7397	-0.0592	0.0182	-0.0073	-0.0462	0.0165	0.9585
4.255	-0.34908	-0.25251	-0.14265	0.14931	-0.087048	-0.32826	4.4912	788.9563	-61.0496	286.5127	62.255	832.709	-0.0592	0.0182	-0.0073	-0.0462	0.0165	0.9585
4.2675	-0.54869	-1.0201	-0.022397	0.42359	-0.27601	-1.1827	7.2469	791.0222	-60.2504	287.5924	60.0984	829.9477	-0.0592	0.0182	-0.0073	-0.0462	0.0165	0.9585
4.28	-0.73053	-2.2206	0.091442	0.85882	-0.44968	-2.5376	9.7623	789.0758	-59.3711	287.192	57.9483	823.2941	-0.0592	0.0182	-0.0073	-0.0462	0.0165	0.9585
4.2925	-0.85163	-3.8648	0.17641	1.4597	-0.56978	-4.4009	11.9975	783.3893	-58.4575	285.3861	55.8713	813.0719	-0.0592	0.0182	-0.0073	-0.0462	0.0165	0.9585
4.305	-0.8471	-5.8328	0.20977	2.1814	-0.58477	-6.6364	13.9504	774.6466	-57.5881	282.424	53.9552	799.9892	-0.0592	0.0182	-0.0073	-0.0462	0.0165	0.9585
4.3175	-0.59456	-7.8321	0.15609	2.9134	-0.41463	-8.9151	15.6523	763.9514	-56.8259	278.7232	52.261	785.1672	-0.0592	0.0182	-0.0073	-0.0462	0.0165	0.9585
4.33	0.018983	-9.3078	-0.023245	3.448	0.030487	-10.5978	17.2127	752.6103	-56.225	274.7887	50.8171	769.8882	-0.0592	0.0182	-0.0073	-0.0462	0.0165	0.9585
4.3425	1.167	-9.3927	-0.3697	3.4593	0.85854	-10.7068	18.7638	741.8747	-55.8075	271.1102	49.6068	755.3668	-0.0592	0.0182	-0.0073	-0.0462	0.0165	0.9585
4.355	2.9776	-6.854	-0.92149	2.4838	2.1653	-7.8279	20.486	732.6693	-55.59	268.049	48.5925	742.4933	-0.0592	0.0182	-0.0073	-0.0462	0.0165	0.9585
4.3675	5.5485	-0.099821	-1.6964	-0.076967	4.0065	-0.16135	22.4678	725.3294	-55.5479	265.735	47.7248	731.6175	-0.0592	0.0182	-0.0073	-0.0462	0.0165	0.9585
4.38	8.8357	12.7162	-2.6746	-4.9162	6.3441	14.4011	24.6631	719.4576	-55.6243	264.0093	46.9569	722.417	-0.0592	0.0182	-0.0073	-0.0462	0.0165	0.9585
4.3925	12.6153	33.4147	-3.7814	-12.719	9.0011	37.9442	26.8936	713.9935	-55.6923	262.4468	46.223	713.9729	-0.0592	0.0182	-0.0073	-0.0462	0.0165	0.9585
4.405	16.3058	63.3407	-4.8422	-23.9854	11.5605	72.0337	28.8136	707.3345	-55.5543	260.4054	45.4436	704.8786	-0.0592	0.0182	-0.0073	-0.0462	0.0165	0.9585
4.4175	18.9097	102.5982	-5.5538	-38.7437	13.296	116.8275	30.0381	697.5519	-54.9688	257.1141	44.5103	693.4084	-0.0592	0.0182	-0.0073	-0.0462	0.0165	0.9585
4.43	19.0323	149.1182	-5.4657	-56.1977	13.1661	170.0225	30.2332	682.7137	-53.7331	251.802	43.3253	677.8038	-0.0592	0.0182	-0.0073	-0.0462	0.0165	0.9585
4.4425	15.6323	198.1567	-3.9687	-74.5358	10.0983	226.2541	29.2481	661.2796	-51.7175	243.8762	41.7988	656.5809	-0.0592	0.0182	-0.0073	-0.0462	0.0165	0.9585
4.455	9.4726	244.0973	-0.47296	-91.6333	3.769	279.0764	27.1977	632.7916	-48.8993	233.1854	39.8621	629.1999	-0.0592	0.0182	-0.0073	-0.0462	0.0165	0.9585
4.4675	1.9159	284.3272	4.4229	-106.5293	-4.6204	325.3277	24.5112	598.2138	-45.3559	220.1383	37.445	596.3677	-0.0592	0.0182	-0.0073	-0.0462	0.0165	0.9585
4.48	-5.7322	319.569	10.0807	-119.5187	-13.8683	365.6142	21.695	559.2847	-41.3214	205.448	34.5897	559.4883	-0.0592	0.0182	-0.0073	-0.0462	0.0165	0.9585
4.4925	-12.5685	351.8893	15.9041	-131.4202	-22.9491	402.1855	19.1909	517.5493	-37.0752	189.7567	31.3995	519.7674	-0.0592	0.0182	-0.0073	-0.0462	0.0165	0.9585
4.505	-18.1169	383.4422	21.3237	-143.085	-31.0402	437.3387	17.1745	473.8685	-32.7997	173.436	27.9726	477.8171	-0.0592	0.0182	-0.0073	-0.0462	0.0165	0.9585
4.5175	-22.2971	415.719	26.0275	-155.0983	-37.731	472.6769	15.572	428.3993	-28.6209	156.5739	24.4419	433.6526	-0.0592	0.0182	-0.0073	-0.0462	0.0165	0.9585
